<svg xmlns="http://www.w3.org/2000/svg" version="1.1" xmlns:xlink="http://www.w3.org/1999/xlink" xmlns:svgjs="http://svgjs.dev/svgjs" width="1500" height="1500" viewBox="0 0 1500 1500"><rect width="1500" height="1500" fill="#000000"></rect><g transform="matrix(0.6666666666666666,0,0,0.6666666666666666,249.39393939393938,601.6984286068889)"><svg viewBox="0 0 396 120" data-background-color="#000000" preserveAspectRatio="xMidYMid meet" height="454" width="1500" xmlns="http://www.w3.org/2000/svg" xmlns:xlink="http://www.w3.org/1999/xlink"><g id="tight-bounds" transform="matrix(1,0,0,1,0.2400000000000091,-0.07150464235650134)"><svg viewBox="0 0 395.52 120.11320159203669" height="120.11320159203669" width="395.52"><g><svg viewBox="0 0 655.9632482765269 199.20571874293512" height="120.11320159203669" width="395.52"><g transform="matrix(1,0,0,1,258.465648276527,55.64865968146943)"><svg viewBox="0 0 397.4975999999999 87.90839937999625" height="87.90839937999625" width="397.4975999999999"><g id="textblocktransform"><svg viewBox="0 0 397.4975999999999 87.90839937999625" height="87.90839937999625" width="397.4975999999999" id="textblock"><g><rect width="397.4975999999999" height="4.894234224033341" x="0" y="60.036674690484176" fill="#ffffff" opacity="1" stroke-width="0" stroke="transparent" fill-opacity="1" class="rect-yte-0" data-fill-palette-color="primary" rx="1%" id="yte-0" data-palette-color="#e8c2d3"></rect></g><g transform="matrix(1,0,0,1,0.9887999999999693,0)"><svg viewBox="0 0 395.52 54.271215526046994" height="54.271215526046994" width="395.52"><g transform="matrix(1,0,0,1,0,0)"><svg width="395.52" viewBox="1 -39.6 293.68 40.300000000000004" height="54.271215526046994" data-palette-color="#e8c2d3"><path d="M1 0L1-8.2 3.5-8.2 3.5-30.7 1-30.7 1-38.9 22.95-38.9Q29.4-38.9 32.8-36.13 36.2-33.35 36.2-27.15L36.2-27.15Q36.2-20.95 32.8-18.18 29.4-15.4 22.95-15.4L22.95-15.4 17.5-15.4 17.5-8.2 22.3-8.2 22.3 0 1 0ZM17.5-22.5L19.2-22.5Q22.1-22.5 22.1-25.7L22.1-25.7 22.1-27.5Q22.1-29.15 21.38-29.93 20.65-30.7 19.2-30.7L19.2-30.7 17.5-30.7 17.5-22.5ZM53.7 0.05L37.8 0.05 37.8-8.2 40-8.2 40-30.7 37.8-30.7 37.8-38.9 51.5-38.9 51.5-8.2 53.7-8.2 53.7 0.05ZM82.25-8.2L84.45-8.2 84.45 0 71.25 0 71.25-3.4Q70.15-1.8 68.17-0.55 66.2 0.7 63.35 0.7L63.35 0.7Q59.6 0.7 57.45-1.3 55.3-3.3 55.3-6.95L55.3-6.95Q55.3-16.4 71.34-16.65L71.34-16.65Q71.2-18.35 70.05-18.98 68.9-19.6 66.15-19.6L66.15-19.6Q63.9-19.6 61.32-19.13 58.75-18.65 56.6-17.85L56.6-17.85 56.6-27.05Q59.25-27.7 62.35-28.1 65.45-28.5 68.4-28.5L68.4-28.5Q75.84-28.5 79.05-25.8 82.25-23.1 82.25-17.45L82.25-17.45 82.25-8.2ZM71.25-11.4L71.25-11.7Q69-11.7 67.77-11.1 66.55-10.5 66.55-9.1L66.55-9.1Q66.55-8.25 67.07-7.73 67.59-7.2 68.55-7.2L68.55-7.2Q69.84-7.2 70.55-8.3 71.25-9.4 71.25-11.4L71.25-11.4ZM98.64-30.55L88.44-30.55 88.44-38.9 98.64-38.9 98.64-30.55ZM101.94 0L86.04 0 86.04-8.2 88.24-8.2 88.24-19.6 86.04-19.6 86.04-27.8 99.74-27.8 99.74-8.2 101.94-8.2 101.94 0ZM134.34-8.2L136.54-8.2 136.54 0 120.74 0 120.74-8.2 122.84-8.2 122.84-16.4Q122.84-18.05 122.14-18.82 121.44-19.6 120.04-19.6L120.04-19.6Q117.04-19.6 117.04-16.4L117.04-16.4 117.04-8.2 119.14-8.2 119.14 0 103.34 0 103.34-8.2 105.54-8.2 105.54-19.6 103.34-19.6 103.34-27.8 117.04-27.8 117.04-23.9Q120.64-28.5 126.04-28.5L126.04-28.5Q130.19-28.5 132.27-25.9 134.34-23.3 134.34-18.75L134.34-18.75 134.34-8.2ZM154.74 0.7Q146.69 0.7 142.36-2.27 138.04-5.25 138.04-10.5L138.04-10.5Q138.04-14 140.14-16.57 142.24-19.15 145.39-20.45L145.39-20.45Q142.59-22.45 141.19-24.55 139.79-26.65 139.79-29.45L139.79-29.45Q139.79-32.65 141.84-34.95 143.89-37.25 147.51-38.43 151.14-39.6 155.79-39.6L155.79-39.6Q160.49-39.6 164.39-38.45 168.29-37.3 170.19-35.9L170.19-35.9 170.19-26.3 159.69-26.3 159.69-27.2Q159.69-29 158.84-29.85 157.99-30.7 156.29-30.7L156.29-30.7Q153.14-30.7 153.14-28.25L153.14-28.25Q153.14-27.3 153.91-26.45 154.69-25.6 156.39-24.3L156.39-24.3 164.54-18.15Q164.74-19.2 164.74-20.55L164.74-20.55 164.74-21.45 176.79-21.45 176.79-13.1 173.89-13.1 173.44-11.45 177.94-8.05 171.84 0 168.19-2.8Q163.19 0.7 154.74 0.7L154.74 0.7ZM156.04-8.2Q158.49-8.2 160.04-9.1L160.04-9.1 153.69-14Q152.74-13.55 152.19-12.78 151.64-12 151.64-11.05L151.64-11.05Q151.64-9.55 152.76-8.88 153.89-8.2 156.04-8.2L156.04-8.2ZM179.64 0L179.64-8.2 182.14-8.2 182.14-30.7 179.64-30.7 179.64-38.9 202.59-38.9Q209.04-38.9 212.44-36.25 215.84-33.6 215.84-27.65L215.84-27.65Q215.84-24.3 214.49-21.85 213.14-19.4 210.64-18.45L210.64-18.45 210.69-17.95Q215.49-17.2 215.49-12.05L215.49-12.05 215.49-8.2 217.84-8.2 217.84 0 201.99 0 201.99-11.75Q201.99-13.7 201.41-14.7 200.84-15.7 199.61-16.05 198.39-16.4 196.14-16.4L196.14-16.4 196.14-8.2 199.44-8.2 199.44 0 179.64 0ZM196.14-22.5L198.84-22.5Q200.29-22.5 201.01-23.28 201.74-24.05 201.74-25.7L201.74-25.7 201.74-27.5Q201.74-29.15 201.01-29.93 200.29-30.7 198.84-30.7L198.84-30.7 196.14-30.7 196.14-22.5ZM246.48-8.2L248.68-8.2 248.68 0 235.48 0 235.48-3.4Q234.38-1.8 232.41-0.55 230.43 0.7 227.58 0.7L227.58 0.7Q223.83 0.7 221.68-1.3 219.53-3.3 219.53-6.95L219.53-6.95Q219.53-16.4 235.58-16.65L235.58-16.65Q235.43-18.35 234.28-18.98 233.13-19.6 230.38-19.6L230.38-19.6Q228.13-19.6 225.56-19.13 222.98-18.65 220.83-17.85L220.83-17.85 220.83-27.05Q223.48-27.7 226.58-28.1 229.68-28.5 232.63-28.5L232.63-28.5Q240.08-28.5 243.28-25.8 246.48-23.1 246.48-17.45L246.48-17.45 246.48-8.2ZM235.48-11.4L235.48-11.7Q233.23-11.7 232.01-11.1 230.78-10.5 230.78-9.1L230.78-9.1Q230.78-8.25 231.31-7.73 231.83-7.2 232.78-7.2L232.78-7.2Q234.08-7.2 234.78-8.3 235.48-9.4 235.48-11.4L235.48-11.4ZM268.08 0L256.58 0 249.98-19.6 247.88-19.6 247.88-27.8 263.33-27.8 263.33-19.6 261.23-19.6 263.03-11.8 263.53-11.8 267.18-27.8 276.38-27.8 280.03-11.8 280.53-11.8 282.28-19.6 280.18-19.6 280.18-27.8 294.68-27.8 294.68-19.6 292.58-19.6 286.23 0 274.08 0 271.33-13.9 270.83-13.9 268.08 0Z" opacity="1" transform="matrix(1,0,0,1,0,0)" fill="#ffffff" class="wordmark-text-0" data-fill-palette-color="primary" id="text-0"></path></svg></g></svg></g><g transform="matrix(1,0,0,1,0,70.69636807895469)"><svg viewBox="0 0 232.209792 17.212031301041563" height="17.212031301041563" width="232.209792"><g transform="matrix(1,0,0,1,0,0)"><svg width="232.209792" viewBox="2.25 -35.95 494.41 36.650000000000006" height="17.212031301041563" data-palette-color="#e8c2d3"><path d="M39.8-34.5L38.9-34.5Q37.65-34.5 36.75-33.63 35.85-32.75 35.8-31.5L35.8-31.5 35.8-5.7Q35.8-2.8 36.15-0.2L36.15-0.2 36.25 0.7 35.8 0.7 8.55-28.4 8.55-3.5Q8.55-2.25 9.45-1.38 10.35-0.5 11.6-0.5L11.6-0.5 12.55-0.5 12.55 0 2.25 0 2.25-0.5 3.2-0.5Q4.45-0.5 5.35-1.38 6.25-2.25 6.25-3.55L6.25-3.55 6.25-29.5Q6.25-32.55 5.9-34.95L5.9-34.95 5.8-35.75 6.3-35.75 33.55-6.65 33.55-31.45Q33.5-32.75 32.6-33.63 31.7-34.5 30.45-34.5L30.45-34.5 29.5-34.5 29.5-35 39.8-35 39.8-34.5ZM48.4-30.68Q53.75-35.7 62.27-35.7 70.8-35.7 76.15-30.68 81.5-25.65 81.5-17.5 81.5-9.35 76.15-4.33 70.8 0.7 62.27 0.7 53.75 0.7 48.4-4.33 43.05-9.35 43.05-17.5 43.05-25.65 48.4-30.68ZM51.12-5.4Q55.35-0.8 62.25-0.8 69.15-0.8 73.37-5.4 77.6-10 77.6-17.5 77.6-25 73.37-29.6 69.15-34.2 62.25-34.2 55.35-34.2 51.12-29.6 46.9-25 46.9-17.5 46.9-10 51.12-5.4ZM111.65-29.7L111.65-30.55Q111.65-31.75 110.8-32.63 109.95-33.5 108.8-33.55L108.8-33.55 99.3-33.55 99.3-3.6Q99.35-2.3 100.27-1.4 101.2-0.5 102.5-0.5L102.5-0.5 103.15-0.5 103.15 0 92.2 0 92.2-0.5 92.85-0.5Q94.15-0.5 95.07-1.4 96-2.3 96.05-3.55L96.05-3.55 96.05-33.55 86.55-33.55Q85.35-33.5 84.52-32.63 83.7-31.75 83.7-30.55L83.7-30.55 83.7-29.7 83.2-29.65 83.2-35.95Q83.95-35.65 85.8-35.35 87.65-35.05 89.2-35.05L89.2-35.05 106.1-35.05Q108.55-35.05 110.17-35.43 111.8-35.8 112.15-35.95L112.15-35.95 112.15-29.65 111.65-29.7ZM161.34-0.5L161.34-0.5 161.74-0.5 161.74 0 150.49 0 150.49-0.5 150.94-0.5Q151.99-0.5 152.52-1.18 153.04-1.85 153.04-2.45 153.04-3.05 152.84-3.65L152.84-3.65 149.64-12.15 136.14-12.15 132.79-3.6Q132.59-3 132.59-2.43 132.59-1.85 133.12-1.18 133.64-0.5 134.69-0.5L134.69-0.5 135.14-0.5 135.14 0 125.09 0 125.09-0.5 125.54-0.5Q126.79-0.5 127.99-1.3 129.19-2.1 129.94-3.65L129.94-3.65 141.24-30.55Q143.09-34.6 143.09-35.7L143.09-35.7 143.54-35.7 156.94-3.65Q157.64-2.1 158.84-1.3 160.04-0.5 161.34-0.5ZM143.04-29.7L136.74-13.65 149.04-13.65 143.04-29.7ZM176.74-2.05L176.74-2.05Q176.59-2.75 176.59-4.75 176.59-6.75 177.34-9L177.34-9 177.79-9Q177.74-8.45 177.74-7.9L177.74-7.9Q177.74-4.85 179.59-2.83 181.44-0.8 184.49-0.8L184.49-0.8Q187.64-0.8 189.66-2.7 191.69-4.6 191.69-7.48 191.69-10.35 189.74-12.15L189.74-12.15 180.14-21.05Q177.44-23.55 177.44-27.1 177.44-30.65 179.81-33.18 182.19-35.7 186.24-35.7L186.24-35.7Q188.14-35.7 190.54-35.2L190.54-35.2 192.49-35.2 192.49-29.05 192.04-29.05Q192.04-31.4 190.41-32.8 188.79-34.2 186.24-34.2 183.69-34.2 181.96-32.5 180.24-30.8 180.24-28.25 180.24-25.7 182.24-23.85L182.24-23.85 192.09-14.75Q194.59-12.45 194.59-8.45 194.59-4.45 192.04-1.88 189.49 0.7 185.24 0.7L185.24 0.7Q183.04 0.7 180.56 0.03 178.09-0.65 176.74-2.05ZM226.93-29.7L226.93-30.55Q226.93-31.75 226.08-32.63 225.23-33.5 224.08-33.55L224.08-33.55 214.58-33.55 214.58-3.6Q214.63-2.3 215.56-1.4 216.48-0.5 217.78-0.5L217.78-0.5 218.43-0.5 218.43 0 207.48 0 207.48-0.5 208.13-0.5Q209.43-0.5 210.36-1.4 211.28-2.3 211.33-3.55L211.33-3.55 211.33-33.55 201.83-33.55Q200.63-33.5 199.81-32.63 198.98-31.75 198.98-30.55L198.98-30.55 198.98-29.7 198.48-29.65 198.48-35.95Q199.23-35.65 201.08-35.35 202.93-35.05 204.48-35.05L204.48-35.05 221.38-35.05Q223.83-35.05 225.46-35.43 227.08-35.8 227.43-35.95L227.43-35.95 227.43-29.65 226.93-29.7ZM231.38-0.5L232.03-0.5Q233.33-0.5 234.26-1.43 235.18-2.35 235.23-3.65L235.23-3.65 235.23-31.65Q235.23-32.85 234.28-33.68 233.33-34.5 232.03-34.5L232.03-34.5 231.43-34.5 231.38-35 246.03-35Q247.58-35 249.41-35.3 251.23-35.6 251.98-35.9L251.98-35.9 251.98-29.6 251.48-29.6 251.48-30.5Q251.48-31.7 250.66-32.55 249.83-33.4 248.68-33.45L248.68-33.45 238.48-33.45 238.48-18 246.93-18Q247.93-18.05 248.63-18.75 249.33-19.45 249.33-20.5L249.33-20.5 249.33-21.2 249.83-21.2 249.83-13.3 249.33-13.3 249.33-14.05Q249.33-15.05 248.66-15.75 247.98-16.45 246.98-16.5L246.98-16.5 238.48-16.5 238.48-1.55 245.63-1.55Q249.33-1.55 251.28-3.2 253.23-4.85 254.53-8.1L254.53-8.1 255.03-8.1 252.13 0 231.38 0 231.38-0.5ZM292.98-0.5L292.98-0.5 293.38-0.5 293.38 0 282.13 0 282.13-0.5 282.58-0.5Q283.63-0.5 284.15-1.18 284.68-1.85 284.68-2.45 284.68-3.05 284.48-3.65L284.48-3.65 281.28-12.15 267.78-12.15 264.43-3.6Q264.23-3 264.23-2.43 264.23-1.85 264.75-1.18 265.28-0.5 266.33-0.5L266.33-0.5 266.78-0.5 266.78 0 256.73 0 256.73-0.5 257.18-0.5Q258.43-0.5 259.63-1.3 260.83-2.1 261.58-3.65L261.58-3.65 272.88-30.55Q274.73-34.6 274.73-35.7L274.73-35.7 275.18-35.7 288.58-3.65Q289.28-2.1 290.48-1.3 291.68-0.5 292.98-0.5ZM274.68-29.7L268.38-13.65 280.68-13.65 274.68-29.7ZM306.13-0.5L306.13-0.5 306.78-0.5 306.78 0 295.83 0 295.83-0.5 296.48-0.5Q297.78-0.5 298.7-1.43 299.63-2.35 299.68-3.65L299.68-3.65 299.68-31.4Q299.63-32.7 298.7-33.6 297.78-34.5 296.48-34.5L296.48-34.5 295.83-34.5 295.83-35 306.78-35 306.78-34.5 306.13-34.5Q304.83-34.5 303.9-33.6 302.98-32.7 302.93-31.4L302.93-31.4 302.93-3.65Q302.93-2.35 303.88-1.43 304.83-0.5 306.13-0.5ZM326.23-0.5L326.23 0 324.08 0Q318.98 0 316.58-2.85L316.58-2.85 304.53-17.4 316.33-32.2Q316.73-32.7 316.73-33.1 316.73-33.5 316.58-33.8L316.58-33.8Q316.18-34.55 315.13-34.55L315.13-34.55 314.63-34.55 314.63-35 325.18-35 325.18-34.55 324.98-34.55Q321.68-34.55 319.58-32.2L319.58-32.2 307.83-18.6 321.48-2.55Q323.48-0.55 326.23-0.5L326.23-0.5ZM352.37-0.5L353.02-0.5Q354.32-0.5 355.25-1.43 356.17-2.35 356.22-3.6L356.22-3.6 356.22-16.55 335.77-16.55 335.77-3.6Q335.77-2.3 336.72-1.4 337.67-0.5 338.97-0.5L338.97-0.5 339.62-0.5 339.62 0 328.67 0 328.67-0.5 329.32-0.5Q330.62-0.5 331.55-1.4 332.47-2.3 332.52-3.6L332.52-3.6 332.52-31.4Q332.47-32.7 331.55-33.6 330.62-34.5 329.32-34.5L329.32-34.5 328.67-34.5 328.67-35 339.62-35 339.62-34.5 338.97-34.5Q337.67-34.5 336.75-33.6 335.82-32.7 335.77-31.4L335.77-31.4 335.77-18.05 356.22-18.05 356.22-31.4Q356.17-33.2 354.62-34.1L354.62-34.1Q353.87-34.5 353.02-34.5L353.02-34.5 352.37-34.5 352.37-35 363.32-35 363.32-34.5 362.67-34.5Q361.37-34.5 360.45-33.58 359.52-32.65 359.47-31.35L359.47-31.35 359.47-3.6Q359.52-2.3 360.45-1.4 361.37-0.5 362.67-0.5L362.67-0.5 363.32-0.5 363.32 0 352.37 0 352.37-0.5ZM372.67-30.68Q378.02-35.7 386.55-35.7 395.07-35.7 400.42-30.68 405.77-25.65 405.77-17.5 405.77-9.35 400.42-4.33 395.07 0.7 386.55 0.7 378.02 0.7 372.67-4.33 367.32-9.35 367.32-17.5 367.32-25.65 372.67-30.68ZM375.4-5.4Q379.62-0.8 386.52-0.8 393.42-0.8 397.65-5.4 401.87-10 401.87-17.5 401.87-25 397.65-29.6 393.42-34.2 386.52-34.2 379.62-34.2 375.4-29.6 371.17-25 371.17-17.5 371.17-10 375.4-5.4ZM443.72-35L443.72-34.5 442.92-34.5Q441.87-34.5 441.09-33.83 440.32-33.15 440.27-32.15L440.27-32.15 440.27-12.35Q440.27-6.5 436.57-2.9 432.87 0.7 426.72 0.7 420.57 0.7 416.74-2.88 412.92-6.45 412.92-12.3L412.92-12.3 412.92-32Q412.92-33.5 411.62-34.2L411.62-34.2Q411.02-34.5 410.27-34.5L410.27-34.5 409.47-34.5 409.47-35 419.62-35 419.62-34.5 418.82-34.5Q417.72-34.5 416.97-33.83 416.22-33.15 416.17-32.1L416.17-32.1 416.17-13Q416.17-7.55 419.09-4.2 422.02-0.85 426.92-0.85 431.82-0.85 434.87-4.03 437.92-7.2 437.92-12.35L437.92-12.35 437.92-32.1Q437.87-33.15 437.12-33.83 436.37-34.5 435.27-34.5L435.27-34.5 434.47-34.5 434.47-35 443.72-35ZM449.27-2.05L449.27-2.05Q449.12-2.75 449.12-4.75 449.12-6.75 449.87-9L449.87-9 450.32-9Q450.27-8.45 450.27-7.9L450.27-7.9Q450.27-4.85 452.12-2.83 453.97-0.8 457.02-0.8L457.02-0.8Q460.17-0.8 462.19-2.7 464.22-4.6 464.22-7.48 464.22-10.35 462.27-12.15L462.27-12.15 452.67-21.05Q449.97-23.55 449.97-27.1 449.97-30.65 452.34-33.18 454.72-35.7 458.77-35.7L458.77-35.7Q460.67-35.7 463.07-35.2L463.07-35.2 465.02-35.2 465.02-29.05 464.57-29.05Q464.57-31.4 462.94-32.8 461.32-34.2 458.77-34.2 456.22-34.2 454.49-32.5 452.77-30.8 452.77-28.25 452.77-25.7 454.77-23.85L454.77-23.85 464.62-14.75Q467.12-12.45 467.12-8.45 467.12-4.45 464.57-1.88 462.02 0.7 457.77 0.7L457.77 0.7Q455.57 0.7 453.09 0.03 450.62-0.65 449.27-2.05ZM473.01-0.5L473.66-0.5Q474.96-0.5 475.89-1.43 476.81-2.35 476.86-3.65L476.86-3.65 476.86-31.65Q476.86-32.85 475.91-33.68 474.96-34.5 473.66-34.5L473.66-34.5 473.06-34.5 473.01-35 487.66-35Q489.21-35 491.04-35.3 492.86-35.6 493.61-35.9L493.61-35.9 493.61-29.6 493.11-29.6 493.11-30.5Q493.11-31.7 492.29-32.55 491.46-33.4 490.31-33.45L490.31-33.45 480.11-33.45 480.11-18 488.56-18Q489.56-18.05 490.26-18.75 490.96-19.45 490.96-20.5L490.96-20.5 490.96-21.2 491.46-21.2 491.46-13.3 490.96-13.3 490.96-14.05Q490.96-15.05 490.29-15.75 489.61-16.45 488.61-16.5L488.61-16.5 480.11-16.5 480.11-1.55 487.26-1.55Q490.96-1.55 492.91-3.2 494.86-4.85 496.16-8.1L496.16-8.1 496.66-8.1 493.76 0 473.01 0 473.01-0.5Z" opacity="1" transform="matrix(1,0,0,1,0,0)" fill="#ffffff" class="slogan-text-1" data-fill-palette-color="secondary" id="text-1"></path></svg></g></svg></g></svg></g></svg></g><g><svg viewBox="0 0 245.65351679999995 199.20571874293512" height="199.20571874293512" width="245.65351679999995"><g><svg xmlns="http://www.w3.org/2000/svg" xmlns:xlink="http://www.w3.org/1999/xlink" version="1.1" x="0" y="0" viewBox="6.051 14.361 87.89999999999999 71.28" enable-background="new 0 0 100 100" xml:space="preserve" height="199.20571874293512" width="245.65351679999995" class="icon-icon-0" data-fill-palette-color="accent" id="icon-0"><g fill="#e8c2d3" data-fill-palette-color="accent"><path d="M91.471 54.058A18.6 18.6 0 0 0 89.759 50.564C79.625 32.398 62.186 19.552 41.901 15.309A28.4 28.4 0 0 0 34.631 14.361C18.872 14.361 6.051 27.326 6.051 43.263 6.051 44.318 6.111 45.358 6.22 46.384 6.221 46.393 6.219 46.402 6.219 46.411 7.746 67.879 17.207 78.764 34.339 78.764 34.714 78.764 35.087 78.755 35.459 78.741 35.558 78.75 35.659 78.753 35.762 78.745A71 71 0 0 1 40.192 78.606C49.813 78.606 59.129 80.529 67.881 84.322 68.06 84.399 68.247 84.446 68.438 84.466A18.9 18.9 0 0 0 74.984 85.641C85.442 85.641 93.951 77.132 93.951 66.674 93.949 64.025 93.181 58.361 91.471 54.058M34.631 18.361C36.754 18.361 38.871 18.639 40.923 19.188 40.959 19.198 40.995 19.206 41.032 19.214 60.221 23.212 76.717 35.365 86.292 52.558 86.31 52.59 86.328 52.622 86.348 52.653A14.4 14.4 0 0 1 88.589 60.365C88.589 68.349 82.094 74.845 74.11 74.845 72.287 74.845 70.49 74.498 68.77 73.814A1.8 1.8 0 0 0 68.336 73.701C59.465 69.927 50.041 68.013 40.315 68.013 38.894 68.013 37.456 68.055 36.035 68.139A3 3 0 0 0 35.794 68.136C35.409 68.156 35.022 68.166 34.631 68.166 21.077 68.166 10.051 56.995 10.051 43.264S21.077 18.361 34.631 18.361M74.983 81.639C73.099 81.639 71.242 81.281 69.462 80.574A1.7 1.7 0 0 0 69.027 80.461C59.898 76.575 50.199 74.606 40.19 74.606A75 75 0 0 0 35.778 74.736 2 2 0 0 0 35.54 74.733C35.142 74.753 34.741 74.764 34.337 74.764 24.889 74.764 18.352 71.187 14.445 63.707 19.619 68.931 26.757 72.166 34.629 72.166 34.992 72.166 35.353 72.158 35.712 72.144 35.812 72.153 35.912 72.156 36.013 72.148A69 69 0 0 1 40.313 72.013C49.65 72.013 58.691 73.879 67.186 77.561 67.364 77.638 67.551 77.685 67.742 77.705A18.4 18.4 0 0 0 74.107 78.846C80.437 78.846 86.031 75.643 89.362 70.776 87.575 77.037 81.812 81.639 74.983 81.639" fill="#ffffff" data-fill-palette-color="accent"></path><path d="M28.601 42.095C33.222 42.095 36.98 38.336 36.98 33.716S33.221 25.337 28.601 25.337 20.222 29.096 20.222 33.716 23.981 42.095 28.601 42.095M28.601 29.336C31.016 29.336 32.98 31.3 32.98 33.715S31.016 38.094 28.601 38.094 24.222 36.13 24.222 33.715 26.186 29.336 28.601 29.336" fill="#ffffff" data-fill-palette-color="accent"></path><path d="M41.162 55.158C41.674 55.158 42.185 54.963 42.576 54.572L58.17 38.979A2 2 0 1 0 55.342 36.151L39.748 51.744A2 2 0 0 0 41.162 55.158" fill="#ffffff" data-fill-palette-color="accent"></path><path d="M50.778 58.476C51.169 58.867 51.68 59.062 52.192 59.062S53.215 58.867 53.606 58.476L69.2 42.882A2 2 0 1 0 66.372 40.054L50.778 55.648A2 2 0 0 0 50.778 58.476" fill="#ffffff" data-fill-palette-color="accent"></path></g></svg></g></svg></g></svg></g><defs></defs></svg><rect width="395.52" height="120.11320159203669" fill="none" stroke="none" visibility="hidden"></rect></g></svg></g></svg>